<?xml version="1.0" standalone="no"?>
<!DOCTYPE svg PUBLIC "-//W3C//DTD SVG 20010904//EN"
 "http://www.w3.org/TR/2001/REC-SVG-20010904/DTD/svg10.dtd">
<svg version="1.0" xmlns="http://www.w3.org/2000/svg"
 width="971.000000pt" height="1280.000000pt" viewBox="0 0 971.000000 1280.000000"
 preserveAspectRatio="xMidYMid meet">
<metadata>
Created by potrace 1.15, written by Peter Selinger 2001-2017
</metadata>
<g transform="translate(0.000000,1280.000000) scale(0.100000,-0.100000)"
fill="#000000" stroke="none">
<path d="M377 12323 c-9 -172 -9 -422 -1 -499 l6 -60 79 -28 c43 -15 81 -32
84 -37 3 -5 -1 -6 -9 -3 -9 3 -16 5 -16 3 0 -2 35 -41 79 -85 101 -105 142
-184 149 -287 3 -49 -1 -86 -11 -116 -9 -25 -14 -48 -11 -53 8 -13 -29 -68
-78 -115 -47 -46 -177 -118 -231 -128 l-34 -7 -7 -105 c-8 -134 -8 -288 0
-375 l7 -66 36 -7 c66 -12 111 -26 108 -34 -1 -4 36 -39 83 -77 147 -121 200
-213 200 -350 0 -43 -6 -90 -15 -112 -13 -33 -13 -35 0 -18 26 34 16 2 -13
-45 -67 -104 -191 -187 -326 -216 l-73 -16 -7 -111 c-8 -142 -8 -286 0 -364
l7 -61 51 -11 c28 -6 65 -18 81 -25 24 -12 25 -14 5 -8 -16 4 2 -16 52 -56 97
-78 146 -133 183 -208 27 -53 30 -67 30 -160 0 -57 4 -96 8 -90 6 8 7 5 3 -6
-3 -10 -6 -21 -6 -23 0 -3 -4 -2 -10 1 -5 3 -7 0 -4 -9 8 -20 -35 -83 -93
-138 -62 -57 -156 -106 -237 -122 l-61 -13 -8 -114 c-5 -63 -5 -164 -2 -225
l7 -112 56 -6 c85 -10 116 -17 104 -25 -6 -4 25 -29 70 -56 45 -27 105 -71
135 -98 104 -95 155 -255 119 -372 -8 -27 -14 -51 -12 -53 2 -2 9 13 16 33 7
20 14 34 16 32 8 -8 -28 -87 -37 -81 -5 3 -6 -2 -3 -10 9 -24 -119 -146 -188
-179 -73 -35 -159 -57 -224 -57 l-51 0 -6 -127 c-9 -160 -9 -289 -1 -374 l7
-66 56 -12 c31 -6 70 -18 86 -26 24 -12 25 -14 5 -9 -16 5 3 -16 55 -60 95
-79 156 -155 185 -233 18 -47 21 -73 18 -138 -3 -44 -8 -89 -11 -100 -4 -11
-1 -6 7 10 18 35 21 18 5 -19 -7 -14 -16 -23 -22 -19 -6 3 -7 1 -3 -5 9 -16
-44 -92 -91 -132 -54 -44 -165 -98 -233 -112 l-57 -11 -7 -111 c-8 -143 -8
-356 0 -434 l7 -61 71 -22 c39 -12 66 -24 59 -26 -7 -2 13 -26 45 -52 83 -69
147 -144 179 -209 23 -48 27 -70 28 -142 0 -47 -3 -98 -7 -115 l-7 -30 14 30
c8 17 14 25 15 18 0 -21 -22 -63 -31 -57 -5 3 -6 -1 -3 -9 7 -18 -66 -109
-119 -148 -55 -41 -130 -76 -193 -90 l-51 -12 -6 -111 c-9 -141 -9 -322 -1
-408 l7 -67 40 -7 c46 -7 119 -32 99 -33 -8 -1 22 -27 65 -59 94 -70 156 -138
191 -212 23 -48 27 -68 27 -150 0 -52 -4 -106 -8 -120 -7 -20 -6 -22 3 -10 10
13 11 12 6 -3 -3 -10 -6 -21 -6 -23 0 -3 -4 -2 -10 1 -5 3 -7 0 -4 -8 3 -9
-19 -41 -56 -81 -73 -77 -179 -136 -282 -155 l-65 -13 -6 -111 c-9 -141 -9
-273 -1 -358 l7 -67 36 -6 c60 -10 111 -26 108 -35 -1 -5 34 -37 77 -72 151
-121 206 -216 206 -355 0 -43 -6 -90 -15 -112 -13 -33 -13 -35 0 -18 26 34 16
2 -13 -45 -68 -105 -204 -194 -335 -219 l-64 -12 -6 -111 c-9 -142 -9 -279 0
-384 l6 -83 233 0 234 0 0 48 c0 59 18 171 31 191 7 12 8 8 3 -14 -5 -23 0
-18 21 22 67 125 154 207 263 245 81 29 195 21 278 -18 74 -35 158 -118 207
-204 24 -43 37 -58 38 -45 3 45 27 -86 28 -152 l1 -73 294 0 294 0 0 78 c1 65
18 168 21 122 1 -8 16 15 33 50 46 91 135 182 216 222 61 30 74 33 162 33 88
0 101 -3 162 -33 81 -40 164 -126 213 -220 19 -37 35 -60 36 -52 4 36 17 -52
18 -122 l1 -78 230 0 230 0 1 68 c1 59 25 190 28 152 0 -8 18 15 39 50 50 87
133 170 207 206 54 26 70 29 160 29 90 0 106 -3 160 -29 74 -37 148 -110 202
-199 22 -38 43 -63 45 -55 7 19 28 -110 28 -170 l0 -52 294 0 294 0 -5 39 c-6
44 16 189 26 172 4 -6 16 8 29 35 30 61 93 142 137 177 20 16 61 40 93 55 49
23 70 27 152 27 83 0 103 -4 153 -27 77 -36 173 -133 217 -220 19 -36 37 -65
41 -62 9 5 19 -61 19 -133 l0 -63 250 0 250 0 1 58 c1 52 25 176 28 142 0 -8
18 14 39 49 54 93 128 165 209 204 61 29 77 32 158 32 81 0 97 -3 158 -32 81
-39 155 -111 210 -204 20 -35 38 -57 38 -49 3 34 27 -90 28 -142 l1 -58 289 0
288 0 8 78 c4 42 13 95 21 117 10 30 12 32 9 10 -4 -23 2 -17 27 30 48 87 138
179 212 215 149 74 326 39 447 -87 41 -42 109 -145 110 -165 0 -7 5 -4 10 7 8
17 9 16 6 -7 -2 -15 -1 -25 3 -23 11 7 20 -48 20 -116 l0 -59 279 0 279 0 7
118 c7 104 0 451 -9 460 -2 2 -31 10 -65 18 -168 39 -324 176 -355 314 -5 22
-4 22 8 -3 12 -26 12 -21 8 50 -8 148 47 254 195 377 45 37 68 63 61 67 -10 7
42 25 123 44 24 6 27 12 33 67 8 78 8 272 0 413 l-7 111 -60 11 c-79 15 -173
63 -236 119 -57 51 -96 108 -85 125 5 8 3 9 -6 4 -10 -6 -12 -4 -7 9 4 9 3 15
-2 12 -9 -6 -22 17 -20 37 0 7 4 3 8 -7 4 -10 5 21 3 70 -7 148 39 234 198
373 41 36 74 69 73 73 -1 3 29 14 67 24 l69 18 7 85 c6 76 -2 421 -11 429 -1
2 -30 10 -64 18 -122 28 -235 104 -303 202 -16 24 -27 50 -24 58 3 8 2 13 -3
10 -5 -3 -14 8 -20 26 -14 40 -13 51 2 17 10 -22 12 -11 12 75 0 91 3 107 28
158 33 67 103 147 182 208 38 29 52 46 44 51 -11 7 37 24 122 44 24 6 27 12
33 67 8 78 8 272 0 413 l-7 111 -60 11 c-79 15 -173 63 -236 119 -57 51 -96
108 -85 125 5 8 3 9 -6 4 -10 -6 -12 -4 -7 9 4 9 3 15 -2 12 -9 -6 -22 17 -20
37 0 7 4 3 8 -7 4 -10 5 21 3 70 -7 148 39 234 195 371 40 35 73 66 72 70 -1
9 52 30 99 38 l40 6 7 95 c4 52 4 164 0 249 l-7 155 -27 6 c-82 19 -112 29
-173 61 -76 40 -184 144 -174 169 3 9 2 12 -4 9 -10 -6 -32 36 -44 85 -5 22
-4 22 8 -3 12 -26 12 -21 8 51 -8 146 46 251 192 373 42 35 71 66 65 70 -9 5
57 29 122 43 24 5 27 11 33 67 8 79 8 253 0 405 l-7 120 -60 11 c-92 18 -183
68 -256 140 -42 42 -61 68 -57 79 3 8 2 13 -3 10 -11 -7 -23 22 -14 36 3 6 1
8 -4 5 -6 -4 -16 7 -22 25 -14 40 -13 51 2 17 10 -23 12 -11 12 75 0 92 3 106
30 161 31 63 135 176 215 234 34 26 39 32 20 27 -21 -5 -20 -3 5 9 17 7 53 19
81 25 l51 11 7 61 c8 78 8 246 0 381 l-7 105 -71 23 c-39 13 -98 41 -131 64
-65 45 -149 140 -141 160 2 7 -2 32 -11 56 -10 30 -14 67 -11 115 7 109 47
185 156 295 52 53 79 87 67 84 -11 -3 3 6 30 20 28 14 64 27 81 31 30 5 32 8
38 66 8 79 8 296 -1 431 l-6 107 -40 11 c-111 30 -227 111 -287 201 -38 58
-50 85 -31 74 5 -3 4 13 -1 37 -17 73 -4 161 36 241 27 56 56 92 125 159 49
47 81 84 72 81 -9 -2 7 7 34 21 28 13 59 25 71 25 19 0 22 8 28 61 8 79 8 269
-1 442 l-6 137 -256 0 -256 0 -13 -52 c-19 -84 -76 -188 -134 -246 -128 -129
-305 -161 -464 -82 -112 55 -217 194 -244 325 l-11 55 -293 0 -293 0 -17 -62
c-99 -356 -467 -479 -705 -237 -58 59 -126 186 -137 254 l-6 45 -253 0 -252 0
-23 -71 c-43 -132 -137 -245 -248 -297 -50 -24 -69 -27 -162 -27 -93 0 -112 3
-162 27 -111 52 -205 165 -248 297 l-23 71 -294 -2 -294 -3 -22 -65 c-46 -135
-134 -243 -242 -296 -55 -26 -69 -29 -165 -29 -97 0 -110 2 -170 31 -113 53
-218 186 -250 317 l-12 47 -233 0 -233 0 -11 -46 c-33 -130 -136 -261 -250
-317 -61 -30 -73 -32 -171 -32 -95 0 -111 3 -162 28 -113 56 -199 159 -245
296 l-22 66 -297 0 -297 0 -12 -45 c-33 -130 -141 -266 -252 -318 -52 -24 -70
-27 -163 -27 -93 0 -112 3 -162 27 -111 52 -210 171 -249 300 l-21 68 -257 0
-258 0 -6 -137z m8580 -1045 c-3 -8 -6 -5 -6 6 -1 11 2 17 5 13 3 -3 4 -12 1
-19z m-8190 -30 c-3 -8 -6 -5 -6 6 -1 11 2 17 5 13 3 -3 4 -12 1 -19z m-26
-75 c-12 -20 -14 -14 -5 12 4 9 9 14 11 11 3 -2 0 -13 -6 -23z m96 -1295 c-3
-7 -5 -2 -5 12 0 14 2 19 5 13 2 -7 2 -19 0 -25z m8110 -20 c-3 -8 -6 -5 -6 6
-1 11 2 17 5 13 3 -3 4 -12 1 -19z m33 -83 c0 -5 -5 -3 -10 5 -5 8 -10 20 -10
25 0 6 5 3 10 -5 5 -8 10 -19 10 -25z m-8083 -2667 c-3 -7 -5 -2 -5 12 0 14 2
19 5 13 2 -7 2 -19 0 -25z m-60 -4310 c-3 -8 -6 -5 -6 6 -1 11 2 17 5 13 3 -3
4 -12 1 -19z m0 -1420 c-3 -7 -5 -2 -5 12 0 14 2 19 5 13 2 -7 2 -19 0 -25z"/>
<path d="M1977 393 c18 -2 50 -2 70 0 21 2 7 4 -32 4 -38 0 -55 -2 -38 -4z"/>
<path d="M4753 393 c20 -2 54 -2 75 0 20 2 3 4 -38 4 -41 0 -58 -2 -37 -4z"/>
<path d="M7568 393 c23 -2 59 -2 80 0 20 2 1 4 -43 4 -44 0 -61 -2 -37 -4z"/>
<path d="M9028 393 c12 -2 32 -2 45 0 12 2 2 4 -23 4 -25 0 -35 -2 -22 -4z"/>
</g>
</svg>
